Coordinates
version=1
nRows=22
nColumns=33
inDegrees=yes

Units are S.I. units (second, meters, Newtons, ...)
Angles are in degrees.

endheader
time	ground_thorax_rot_x	ground_thorax_rot_y	ground_thorax_rot_z	ground_thorax_tx	ground_thorax_ty	ground_thorax_tz	clav_prot_r	clav_elev_r	scapula_abduction_r	scapula_elevation_r	scapula_upward_rot_r	scapula_winging_r	shoulder_elv_r	plane_of_elev_r	axial_rot_r	elbow_flexion_r	pro_sup_r	wrist_flex_r	wrist_dev_r	clav_prot_l	clav_elev_l	scapula_abduction_l	scapula_elevation_l	scapula_upward_rot_l	scapula_winging_l	shoulder_elv_l	plane_of_elev_l	axial_rot_l	elbow_flexion_l	pro_sup_l	wrist_flex_l	wrist_dev_l	
3.2000	39.595601	1.332274	9.646653	-176.988161	900.901656	-5.281983	13.576365	38.673313	39.417821	45.000000	-35.683826	4231.509930	-2090.680736	32.533348	66.180043	1458.021904	-288.833986	18.680530	3.956441	11.741939	-45.000000	-40.469704	45.000000	-36.944159	-1700.336070	-1890.981801	141.186288	149.896895	1812.121089	-323.181960	7.230696	-23.142648	
3.2100	39.509097	1.171774	9.444383	-174.115788	901.327369	-5.038447	13.629418	38.847283	39.677429	45.000000	-34.944099	4231.435527	-2090.679000	32.528787	65.923439	1458.168129	-287.578940	18.645442	3.844814	11.605206	-45.000000	-40.752493	45.000000	-35.818853	-1700.452669	-1890.966629	141.168027	150.258556	1811.906634	-325.032649	7.553352	-23.143052	
3.2200	39.404436	1.005454	9.244356	-171.136515	901.568405	-4.764937	13.662492	39.024518	39.938637	45.000000	-34.179448	4231.367992	-2090.692647	32.521893	65.680713	1458.308281	-286.364613	18.614623	3.740995	11.467660	-45.000000	-41.030211	45.000000	-34.687273	-1700.579425	-1890.983223	141.150536	150.598807	1811.665367	-327.118673	7.918257	-23.121980	
3.2300	39.282143	0.838044	9.049320	-168.053309	901.608094	-4.459850	13.666081	39.200290	40.195342	44.999999	-33.392280	4231.306922	-2090.723861	32.515331	65.452896	1458.442713	-285.199603	18.588213	3.645703	11.332892	-45.000000	-41.304295	45.000000	-33.561987	-1700.715252	-1891.030937	141.132392	150.909908	1811.403842	-329.412832	8.317355	-23.073625	
3.2400	39.143242	0.670514	8.862585	-164.869450	901.432621	-4.121741	13.662093	39.380208	40.453103	44.999999	-32.583549	4231.251170	-2090.776473	32.502842	65.248150	1458.569851	-284.079627	18.559929	3.554836	11.189687	-45.000000	-41.575342	45.000000	-32.436932	-1700.861998	-1891.113640	141.122477	151.179567	1811.126962	-331.885083	8.752534	-22.999090	
3.2500	38.988480	0.507366	8.687604	-161.588639	901.031438	-3.749461	13.643432	39.560318	40.706148	44.999998	-31.758332	4231.197279	-2090.853996	32.490588	65.064995	1458.690730	-282.999196	18.528044	3.468065	11.042854	-45.000000	-41.845680	45.000000	-31.326383	-1701.017952	-1891.228494	141.119790	151.407105	1810.844824	-334.485767	9.211709	-22.894900	
3.2600	38.819865	0.346772	8.523015	-158.215228	900.397233	-3.342316	13.610313	39.742672	40.956311	44.999996	-30.914408	4231.146700	-2090.956717	32.473950	64.906489	1458.804925	-281.955221	18.491347	3.385363	10.892296	-45.000000	-42.113824	45.000000	-30.233656	-1701.183528	-1891.376596	141.123211	151.595549	1810.563281	-337.162120	9.687373	-22.758663	
3.2700	38.639413	0.189944	8.370742	-154.754214	899.525552	-2.900168	13.564421	39.925980	41.202577	44.999993	-30.060613	4231.100062	-2091.085420	32.453969	64.765489	1458.913707	-280.946444	18.448603	3.306542	10.741733	-45.000000	-42.380586	45.000000	-29.168693	-1701.359948	-1891.557429	141.132755	151.751706	1810.290353	-339.856786	10.169484	-22.588003	
3.2800	38.448905	0.032913	8.228777	-151.211401	898.414078	-2.423467	13.516666	40.112722	41.450801	44.999987	-29.199245	4231.062781	-2091.238992	32.422985	64.643561	1459.018770	-279.966159	18.398655	3.230352	10.584831	-45.000000	-42.641325	45.000000	-28.129767	-1701.547957	-1891.768575	141.146808	151.876069	1810.026355	-342.523404	10.653387	-22.384384	
3.2900	38.249682	-0.126255	8.097365	-147.593205	897.061949	-1.913166	13.474638	40.302313	41.700264	44.999977	-28.341557	4231.038810	-2091.416734	32.383415	64.529952	1459.122743	-279.009515	18.341819	3.156700	10.422275	-45.000000	-42.895089	45.000000	-27.117825	-1701.747648	-1892.009123	141.166842	151.971122	1809.773781	-345.120573	11.131816	-22.147799	
3.3000	38.043626	-0.286850	7.976379	-143.906311	895.469163	-1.370558	13.438676	40.493453	41.951563	44.999959	-27.499914	4231.030474	-2091.616887	32.336503	64.412283	1459.225788	-278.074960	18.281079	3.087015	10.254729	-45.000000	-43.138913	45.000000	-26.141927	-1701.960141	-1892.276367	141.189219	152.046246	1809.533668	-347.610261	11.595031	-21.881605	
3.3100	37.833236	-0.447430	7.868532	-140.157328	893.636420	-0.797119	13.419510	40.683458	42.202524	44.999926	-26.693032	4231.044483	-2091.835026	32.284820	64.271901	1459.326499	-277.164542	18.217138	3.021988	10.084390	-45.000000	-43.372651	45.000000	-25.206993	-1702.186847	-1892.572499	141.215180	152.112622	1809.305712	-349.960517	12.040425	-21.588668	
3.3200	37.620958	-0.605051	7.774663	-136.352257	891.565317	-0.194355	13.408954	40.869293	42.449924	44.999867	-25.932031	4231.079047	-2092.071184	32.235089	64.097989	1459.421669	-276.289018	18.153909	2.964730	9.917010	-45.000000	-43.599300	45.000000	-24.328758	-1702.427531	-1892.896293	141.239493	152.193437	1809.091135	-352.131013	12.458022	-21.274184	
3.3300	37.409778	-0.762674	7.693388	-132.496279	889.258907	0.436228	13.416714	41.050694	42.692624	44.999762	-25.223924	4231.139060	-2092.322882	32.188289	63.886570	1459.511689	-275.458331	18.093050	2.915583	9.751055	-45.000000	-43.817825	45.000000	-23.506001	-1702.681978	-1893.247979	141.260377	152.303210	1808.888954	-354.093531	12.847454	-20.944756	
3.3400	37.202648	-0.920862	7.622853	-128.593540	886.722346	1.093047	13.441207	41.225905	42.930549	44.999573	-24.575378	4231.226494	-2092.586978	32.144102	63.630448	1459.596343	-274.684151	18.038118	2.875986	9.589616	-45.000000	-44.029252	45.000000	-22.741181	-1702.949770	-1893.624725	141.272749	152.459176	1808.698556	-355.819959	13.203030	-20.607808	
3.3500	37.002925	-1.079914	7.567029	-124.647429	883.963296	1.774193	13.487952	41.393536	43.162537	44.999235	-23.996014	4231.346823	-2092.860206	32.104810	63.329024	1459.674456	-273.976041	17.990210	2.846189	9.429386	-45.000000	-44.228165	45.000000	-22.042103	-1703.234228	-1894.022175	141.274380	152.669290	1808.515808	-357.292831	13.523401	-20.272093	
3.3600	36.813484	-1.244784	7.519356	-120.661392	880.992241	2.476998	13.556737	41.554873	43.389671	44.998631	-23.478811	4231.500912	-2093.140906	32.067254	62.984938	1459.747535	-273.344532	17.950697	2.826348	9.273813	-45.000000	-44.419859	45.000000	-21.395187	-1703.532983	-1894.437424	141.262247	152.945420	1808.336914	-358.486321	13.805445	-19.944649	
3.3700	36.636312	-1.412069	7.487713	-116.639595	877.821984	3.197569	13.644337	41.706366	43.606079	44.997546	-23.039926	4231.694536	-2093.424273	32.040320	62.588253	1459.813762	-272.801717	17.922900	2.818005	9.123938	-45.000000	-44.594470	45.000000	-20.817430	-1703.850675	-1894.863127	141.234104	153.289908	1808.158712	-359.373208	14.040584	-19.634842	
3.3800	36.471402	-1.571846	7.478841	-112.587954	874.466975	3.930325	13.744289	41.841009	43.808429	44.995607	-22.703414	4231.925192	-2093.705832	32.032760	62.136013	1459.870616	-272.363081	17.908818	2.822928	8.980779	-45.000000	-44.744729	45.000000	-20.333172	-1704.190889	-1895.288747	141.183066	153.696690	1807.982639	-359.931729	14.219140	-19.352282	
3.3900	36.321856	-1.716336	7.503769	-108.514592	870.942137	4.667775	13.843663	41.955312	43.991709	44.992124	-22.477538	4232.193039	-2093.984434	32.051866	61.629629	1459.910842	-272.049113	17.911193	2.844384	8.842475	-45.000000	-44.857714	45.000000	-19.971841	-1704.561691	-1895.707165	141.109115	154.163925	1807.809113	-360.149315	14.334834	-19.104554	
3.4000	36.190422	-1.872569	7.534003	-104.430491	867.262139	5.400608	13.979271	42.065553	44.177014	44.985908	-22.302580	4232.501954	-2094.263896	32.058478	61.083301	1459.932342	-271.878421	17.923448	2.879002	8.702373	-45.000000	-44.936369	45.000000	-19.641515	-1704.961377	-1896.128376	141.032812	154.695410	1807.638161	-360.022870	14.418241	-18.892779	
3.4100	36.078226	-2.046288	7.563697	-100.349396	863.441356	6.118164	14.149022	42.176310	44.365280	44.974714	-22.150346	4232.850278	-2094.547861	32.044458	60.501698	1459.929144	-271.873367	17.947892	2.929946	8.553677	-45.000000	-44.979587	45.000000	-19.324424	-1705.389633	-1896.552904	140.962959	155.282924	1807.469517	-359.559916	14.472200	-18.719754	
